PathFileType  4	(X/Y/Z) C:\Users\antoi\Documents\MyRepositories\mobilecap\ResultsAnalysis
DataRate	CameraRate	NumFrames	NumMarkers	Units	OrigDataRate	OrigDataStartFrame	OrigNumFrames
100.0	100.0	4	51	mm	100.0	113	129
Frame#	Time	r_knee			r_shank_antsup			r_ankle			r_calc			r_5meta			r_toe			L_knee			L_shank_antsup			L_ankle			L_calc			L_5meta			L_toe			r_sh2			r_sh3			r_sh4			L_sh2			L_sh3			r_thigh1			r_thigh2			r_thigh3			r_thigh4			r_thigh5			L_thigh1			L_thigh2			L_thigh3			L_thigh4			r.ASIS			r.PSIS			L.ASIS			L.PSIS			C7			R_Shoulder			L_Shoulder			R_Sternum			L_Sternum			R_humerus			R_elbow_med			R_elbow_lat			R_forearm			R_wrist_radius			R_wrist_ulna			L_humerus			L_elbow_med			L_elbow_lat			L_forearm			L_wrist_radius			L_wrist_ulna			R_HJC			L_HJC			R_HJC_reg			L_HJC_reg			
		X1	Y1	Z1	X2	Y2	Z2	X3	Y3	Z3	X4	Y4	Z4	X5	Y5	Z5	X6	Y6	Z6	X7	Y7	Z7	X8	Y8	Z8	X9	Y9	Z9	X10	Y10	Z10	X11	Y11	Z11	X12	Y12	Z12	X13	Y13	Z13	X14	Y14	Z14	X15	Y15	Z15	X16	Y16	Z16	X17	Y17	Z17	X18	Y18	Z18	X19	Y19	Z19	X20	Y20	Z20	X21	Y21	Z21	X22	Y22	Z22	X23	Y23	Z23	X24	Y24	Z24	X25	Y25	Z25	X26	Y26	Z26	X27	Y27	Z27	X28	Y28	Z28	X29	Y29	Z29	X30	Y30	Z30	X31	Y31	Z31	X32	Y32	Z32	X33	Y33	Z33	X34	Y34	Z34	X35	Y35	Z35	X36	Y36	Z36	X37	Y37	Z37	X38	Y38	Z38	X39	Y39	Z39	X40	Y40	Z40	X41	Y41	Z41	X42	Y42	Z42	X43	Y43	Z43	X44	Y44	Z44	X45	Y45	Z45	X46	Y46	Z46	X47	Y47	Z47	X48	Y48	Z48	X49	Y49	Z49	X50	Y50	Z50	X51	Y51	Z51	

113	1.12000000	1392.25009	460.58616	-119.25887	1442.67942	412.42868	-125.01139	1469.46480	81.12078	-145.63571	1421.86028	48.45780	-192.03620	1585.18322	52.29657	-124.58441	1622.36017	87.49578	-175.55436	1134.88489	458.63719	-357.04216	1132.55661	367.25085	-342.01115	925.05088	125.49125	-327.73167	855.75674	112.33788	-286.98566	1004.03843	40.11134	-343.22241	1051.78412	43.76236	-286.37159	1454.92227	300.43233	-119.68747	1371.04281	404.61849	-97.23124	1374.36999	287.53700	-99.57430	1069.16758	416.54076	-383.04689	999.83685	314.65474	-386.23819	1359.46346	707.03550	-65.34700	1396.37962	600.88794	-86.29044	1342.48263	559.01513	-87.02754	1252.81876	669.15014	-74.43404	1291.32430	566.12243	-105.96414	1259.44979	706.71617	-423.88167	1229.01330	577.66809	-386.11697	1150.36983	730.32207	-425.86201	1118.84242	609.82943	-367.90279	1350.80050	903.10022	-138.67728	1134.50847	921.31784	-200.69529	1341.90767	893.48558	-363.26287	1135.54331	923.17898	-280.92563	1222.26936	1369.98274	-241.24712	1258.76427	1334.61905	-95.03926	1276.03329	1343.71254	-374.40620	1345.88482	1302.22418	-207.82251	1346.64331	1303.15875	-249.20096	1255.61930	1221.14422	-30.42405	1137.92711	1034.70738	-55.95872	1166.00649	1038.14011	3.60463	1213.78057	959.63281	28.43139	1229.20112	813.95774	36.46601	1199.00801	817.96612	59.15640	1294.96335	1249.19598	-450.33480	1262.82450	1022.19100	-462.64530	1296.43290	1053.40895	-516.55005	1386.92622	992.69138	-511.06319	1469.70582	896.72645	-488.23704	1451.26814	881.18200	-520.51096	1271.53305	812.51882	-138.02029	1260.30836	807.98959	-345.18237	1278.44963	822.98741	-172.01543	1280.36869	826.42698	-320.45341	
114	1.13000000	1403.32792	460.91834	-117.77811	1454.07255	411.81265	-124.19252	1472.85633	80.14273	-145.34491	1423.68395	49.49809	-191.72271	1587.75790	48.06881	-125.21673	1625.85142	81.72822	-176.58490	1150.90383	457.65250	-358.18996	1144.43730	365.75521	-343.97952	931.04454	130.27198	-329.88427	861.45590	120.88455	-288.84238	1005.59412	40.13793	-343.73521	1053.68496	42.75056	-287.11326	1464.20570	299.65819	-119.05904	1382.68775	405.31375	-95.51007	1383.77955	288.24345	-97.72813	1083.77590	417.87437	-383.87416	1011.13368	318.50952	-387.39691	1371.77359	707.11921	-62.92014	1407.73446	600.58826	-83.96799	1353.39596	559.40870	-85.49415	1264.81689	670.41408	-73.16933	1302.36877	567.27440	-104.72729	1274.24134	706.56476	-422.94794	1244.52879	576.94777	-386.40848	1165.02079	729.95536	-425.01785	1134.64572	608.59848	-367.55926	1364.76181	903.98876	-137.23540	1148.49724	921.83938	-199.96874	1356.39072	893.41364	-361.97789	1149.86805	923.47566	-280.25751	1234.58498	1370.24940	-239.26464	1271.34530	1334.64769	-93.12555	1288.19915	1344.53787	-372.58421	1358.46173	1302.99725	-206.02160	1359.13028	1304.01746	-247.40983	1268.58342	1221.00196	-28.84441	1151.58290	1034.19363	-55.21551	1179.54742	1037.54516	4.46617	1227.55141	959.12570	29.18106	1243.60952	813.47124	36.66109	1213.33878	817.27131	59.30431	1306.72344	1249.94159	-448.70586	1273.41458	1023.23460	-460.43677	1307.18138	1053.95299	-514.73660	1397.11710	992.26144	-509.82174	1478.71121	895.10614	-487.73565	1460.03818	879.88153	-519.96728	1285.45773	813.37585	-136.50986	1274.78150	807.99757	-343.68151	1292.40065	823.49944	-170.66919	1294.94058	826.52281	-319.22044	
115	1.14000000	1414.48825	461.59325	-116.02536	1465.21068	411.38626	-123.02005	1475.50780	79.52923	-145.07910	1425.25400	50.48632	-191.45871	1589.66827	44.80350	-125.39081	1628.62096	76.91056	-177.14402	1168.14507	456.43957	-359.66908	1157.35481	364.09329	-346.39899	938.12740	135.49217	-332.09019	868.39583	130.43691	-290.91517	1007.39038	40.41288	-344.27840	1055.78947	41.86803	-287.86393	1473.02276	299.09989	-118.13221	1394.09217	406.27491	-93.45024	1392.76586	289.25864	-95.63679	1099.53709	419.19783	-384.92166	1023.58134	322.58257	-388.68953	1383.95247	707.75536	-60.59497	1419.22006	600.90379	-81.61887	1364.49480	560.25174	-83.61087	1276.77059	671.97602	-71.63543	1313.57356	568.69373	-103.08772	1289.51179	706.53302	-421.90416	1260.91430	576.21661	-386.86390	1180.12316	729.43857	-424.08368	1151.22117	607.02868	-367.25387	1378.47914	905.08736	-135.70022	1162.32025	922.62891	-199.26155	1370.83986	893.51168	-360.49898	1164.17472	923.92166	-279.63380	1246.91043	1370.73332	-237.27596	1283.97509	1334.89567	-91.22861	1300.31686	1345.60431	-370.81148	1371.00946	1304.04678	-204.28287	1371.59102	1305.14004	-245.68234	1281.69930	1221.07748	-27.28876	1165.44716	1033.87357	-54.36676	1193.37146	1037.11217	5.39596	1241.71452	958.80850	29.89607	1258.56872	813.24360	36.74971	1228.23661	816.74541	59.41410	1318.31430	1250.89283	-447.13017	1283.95103	1024.42322	-458.29013	1317.78413	1054.67909	-512.77513	1407.09177	991.94510	-508.56768	1487.36913	893.49070	-487.29356	1468.45713	878.63589	-519.47971	1299.15738	814.46645	-134.88978	1289.21122	808.17337	-342.07005	1306.03275	824.39315	-169.23187	1309.46095	826.78100	-317.81873	
116	1.15000000	1425.63107	462.54473	-114.12072	1475.90069	411.08996	-121.61779	1477.43511	79.24534	-144.90371	1426.48713	51.41742	-191.26621	1590.95720	42.49985	-125.29942	1630.66067	73.08119	-177.43821	1186.71576	454.93539	-361.46709	1171.78648	362.34973	-349.20202	946.44459	141.24478	-334.24503	876.80353	141.08965	-293.08493	1009.46952	41.13170	-344.82247	1058.12848	41.24599	-288.60623	1481.21676	298.69510	-117.05071	1405.03463	407.42811	-91.24863	1401.14385	290.49966	-93.51700	1116.65563	420.45187	-386.23171	1037.38591	326.79869	-390.06542	1396.07044	708.93500	-58.50203	1430.92620	601.83926	-79.40188	1375.89143	561.53596	-81.49261	1288.76966	673.77101	-69.76913	1325.01641	570.30081	-101.07163	1305.27013	706.58851	-420.73317	1278.23366	575.45525	-387.45757	1195.66845	728.63476	-423.03199	1168.56175	605.00706	-367.05299	1391.83846	906.39478	-134.06129	1175.87784	923.68738	-198.61826	1385.15404	893.75922	-358.79861	1178.36870	924.48506	-279.09828	1259.23332	1371.43239	-235.31395	1296.62966	1335.36253	-89.38271	1312.41520	1346.88680	-369.10145	1383.50418	1305.32049	-202.61725	1384.02615	1306.48581	-244.02811	1294.94637	1221.36419	-25.79565	1179.51811	1033.72819	-53.40247	1207.49637	1036.83065	6.38702	1256.28751	958.67909	30.55738	1274.09000	813.27990	36.74541	1243.72217	816.39508	59.50406	1329.78191	1252.02773	-445.61601	1294.43660	1025.74931	-456.17218	1328.24858	1055.59561	-510.68517	1416.83239	991.74350	-507.32100	1495.68159	891.90986	-486.92538	1476.54061	877.47378	-519.05099	1312.50748	815.79401	-133.15477	1303.51387	808.49055	-340.34001	1319.22778	825.70142	-167.66652	1323.81799	827.17617	-316.19759	
